<svg xmlns="http://www.w3.org/2000/svg" width="1590.488" height="1021.876"><g opacity=".27"><g data-name="Сгруппировать 39"><path data-name="Контур 38" d="M1373.33 2.675v422.406H950.924V2.675h422.406m2.624-2.624H948.3v427.653h427.653V.051z" fill="#999"/></g><g data-name="Сгруппировать 40"><path data-name="Контур 39" d="M1160.815 215.19v425.03H737.097V215.19h423.718m1.312-1.312H735.785v427.654h426.342V213.878z" fill="#b3b3b3"/></g><path data-name="Линия 18" fill="none" stroke="#b3b3b3" stroke-miterlimit="10" d="M948.956.707l213.827 213.827"/><path data-name="Линия 19" fill="none" d="M1162.127 212.566h-381.74"/><g data-name="Сгруппировать 41"><path data-name="Линия 20" fill="none" stroke="#b3b3b3" stroke-miterlimit="10" d="M948.956 428.36l212.515 212.515"/></g><path data-name="Линия 21" fill="none" stroke="#b3b3b3" stroke-miterlimit="10" d="M948.956 427.704L948 1021.483"/><path data-name="Линия 22" fill="none" stroke="#b3b3b3" stroke-miterlimit="10" d="M948.3 427.049L0 427.484"/><path data-name="Линия 23" fill="none" stroke="#999" stroke-miterlimit="10" d="M736.441 214.534L523.926 427.049"/><path data-name="Линия 24" fill="none" stroke="#999" stroke-miterlimit="10" d="M311.412 214.534l212.515 212.515"/><path data-name="Линия 25" fill="none" stroke="#999" stroke-miterlimit="10" stroke-width="2" d="M1161.471 640.875L948.956 853.39"/><path data-name="Линия 26" fill="none" stroke="#b3b3b3" stroke-miterlimit="10" d="M1162.127 214.534h426.997"/><path data-name="Линия 27" fill="none" stroke="#b3b3b3" stroke-miterlimit="10" d="M1162.127 640.875h428.309"/><path data-name="Линия 28" fill="none" stroke="#b3b3b3" stroke-miterlimit="10" d="M1375.298 427.048l213.827 213.827"/><path data-name="Линия 29" fill="none" stroke="#999" stroke-miterlimit="10" stroke-width="2" d="M949.613 853.39H311.412"/><path data-name="Линия 30" fill="none" stroke="#999" stroke-miterlimit="10" stroke-width="2" d="M736.441 640.875L523.926 853.39"/><path data-name="Линия 31" fill="none" stroke="#b3b3b3" stroke-miterlimit="10" d="M523.926 853.39V427.704"/><path data-name="Линия 32" fill="none" stroke="#b3b3b3" stroke-miterlimit="10" d="M311.412 214.533l-.412 806.95"/><path data-name="Линия 33" fill="none" stroke="#b3b3b3" stroke-miterlimit="10" d="M1589.13 213.738v426.519"/><path data-name="Линия 34" fill="none" stroke="#999" stroke-miterlimit="10" stroke-width="2" d="M1375.298.707l214.483 214.483"/><path data-name="Линия 35" fill="none" stroke="#b3b3b3" stroke-miterlimit="10" d="M523.271 852.734L311.412 640.875"/><path data-name="Линия 36" fill="none" stroke="#b3b3b3" stroke-miterlimit="10" d="M311.412 640.875H1.822"/><path data-name="Линия 37" fill="none" stroke="#b3b3b3" stroke-miterlimit="10" d="M523.926 853.39L311 1021.483"/></g></svg>