<svg xmlns="http://www.w3.org/2000/svg" width="1216.459" height="800.359"><g opacity=".5"><g data-name="Сгруппировать 39"><path data-name="Контур 38" d="M1048.748 2.225v325.913H722.835V2.225h325.912m2.024-2.024h-329.96v329.961h329.961V.201z" fill="#999"/></g><g data-name="Сгруппировать 40"><path data-name="Контур 39" d="M884.78 166.193V494.13H557.855V166.193h326.924m1.012-1.012H556.843v329.961h328.949V165.181z" fill="#b3b3b3"/></g><path data-name="Линия 18" fill="none" stroke="#b3b3b3" stroke-miterlimit="10" d="M721.317.707l164.98 164.98"/><path data-name="Линия 19" fill="none" d="M885.792 164.169H591.256"/><g data-name="Сгруппировать 41"><path data-name="Линия 20" fill="none" stroke="#b3b3b3" stroke-miterlimit="10" d="M721.317 330.668l163.968 163.968"/></g><path data-name="Линия 21" fill="none" stroke="#b3b3b3" stroke-miterlimit="10" d="M721.317 330.162l-.541 469.819"/><path data-name="Линия 22" fill="none" stroke="#b3b3b3" stroke-miterlimit="10" d="M720.811 329.656l-720.809.807"/><path data-name="Линия 23" fill="none" stroke="#999" stroke-miterlimit="10" d="M557.348 165.688L393.38 329.656"/><path data-name="Линия 24" fill="none" stroke="#999" stroke-miterlimit="10" d="M229.412 165.688L393.38 329.656"/><path data-name="Линия 25" fill="none" stroke="#999" stroke-miterlimit="10" stroke-width="2" d="M885.285 494.636L721.317 658.604"/><path data-name="Линия 26" fill="none" stroke="#b3b3b3" stroke-miterlimit="10" d="M885.791 165.688h329.455"/><path data-name="Линия 27" fill="none" stroke="#b3b3b3" stroke-miterlimit="10" d="M885.791 494.636h330.467"/><path data-name="Линия 28" fill="none" stroke="#b3b3b3" stroke-miterlimit="10" d="M1050.266 329.656l164.98 164.98"/><path data-name="Линия 29" fill="none" stroke="#999" stroke-miterlimit="10" stroke-width="2" d="M721.823 658.604H229.412"/><path data-name="Линия 30" fill="none" stroke="#999" stroke-miterlimit="10" stroke-width="2" d="M557.348 494.636L393.38 658.604"/><path data-name="Линия 31" fill="none" stroke="#b3b3b3" stroke-miterlimit="10" d="M393.38 658.605V330.162"/><path data-name="Линия 32" fill="none" stroke="#b3b3b3" stroke-miterlimit="10" d="M229.412 165.687l-.15 634.293"/><path data-name="Линия 33" fill="none" stroke="#b3b3b3" stroke-miterlimit="10" d="M1215.502 165.481v329"/><path data-name="Линия 34" fill="none" stroke="#999" stroke-miterlimit="10" stroke-width="2" d="M1050.266.707l165.486 165.486"/><path data-name="Линия 35" fill="none" stroke="#b3b3b3" stroke-miterlimit="10" d="M392.874 658.098L229.412 494.636"/><path data-name="Линия 36" fill="none" stroke="#b3b3b3" stroke-miterlimit="10" d="M229.412 494.636l-229.41.792"/><path data-name="Линия 37" fill="none" stroke="#b3b3b3" stroke-miterlimit="10" d="M393.38 658.605L229.262 799.981"/></g></svg>