<svg xmlns="http://www.w3.org/2000/svg" width="49.279" height="48.125"><g data-name="Сгруппировать 11" fill="#fff"><path data-name="Контур 27" d="M19.426 41.204h1.892a1.579 1.579 0 01.185.023.894.894 0 01.208.058 1.226 1.226 0 01.2.115 1.4 1.4 0 01.185.185.77.77 0 01.115.277 1.593 1.593 0 010 .761 1.363 1.363 0 01-.115.288.974.974 0 01-.173.208 1.02 1.02 0 01-.2.138 1.407 1.407 0 01-.2.081.574.574 0 01-.185.035.562.562 0 01-.138.012h-.957v.554h-.829v-2.735zm1.73 1.373c.219 0 .323-.1.323-.3a.356.356 0 00-.012-.115.186.186 0 00-.046-.081.241.241 0 00-.069-.046.167.167 0 00-.081-.023.408.408 0 01-.069-.012h-.957v.565h.911z"/><path data-name="Контур 28" d="M22.448 41.204h1.973a1.579 1.579 0 01.185.023.894.894 0 01.208.058.718.718 0 01.2.115 1.311 1.311 0 01.185.173.563.563 0 01.115.265 1.68 1.68 0 01.046.358.987.987 0 01-.461.923l.508.807h-.957l-.434-.642h-.75v.646h-.83v-2.726zm1.753 1.28c.208 0 .311-.081.311-.254 0-.15-.1-.231-.323-.231h-.911v.485h.923z"/><path data-name="Контур 29" d="M27.166 41.158a3.169 3.169 0 01.6.046 2.143 2.143 0 01.484.138 1.05 1.05 0 01.358.254 1.284 1.284 0 01.219.392 1.671 1.671 0 01.081.565 2.019 2.019 0 01-.069.554 1.25 1.25 0 01-.2.392.921.921 0 01-.346.265 1.508 1.508 0 01-.473.138 4.6 4.6 0 01-.623.046 1.931 1.931 0 01-1.28-.346 1.376 1.376 0 01-.4-1.084 1.254 1.254 0 01.4-1.015 1.868 1.868 0 011.249-.345zm.023 2.065a.9.9 0 00.577-.161.613.613 0 00.208-.508.6.6 0 00-.219-.508.9.9 0 00-.577-.173.978.978 0 00-.335.046.633.633 0 00-.242.138.6.6 0 00-.138.219.757.757 0 00-.046.288.669.669 0 00.2.5.9.9 0 00.572.159z"/><path data-name="Контур 30" d="M31.884 42.796v.069a.8.8 0 01-.035.161 1.23 1.23 0 01-.081.219 1.553 1.553 0 01-.152.239.979.979 0 01-.254.231 1.178 1.178 0 01-.381.161 1.768 1.768 0 01-.519.069 1.706 1.706 0 01-.681-.127.958.958 0 01-.427-.311 2.068 2.068 0 01-.219-.369 1.116 1.116 0 01-.092-.311v-.143h.807v.023a.408.408 0 01.012.069l.035.1a.272.272 0 00.069.1l.1.1a.424.424 0 00.161.069.674.674 0 00.219.023 1.277 1.277 0 00.219-.023.527.527 0 00.161-.058.4.4 0 00.1-.069.216.216 0 00.069-.081l.035-.069c.012-.023.012-.035.023-.058v-.706h-1v-.9h1.834v1.592z"/><path data-name="Контур 31" d="M32.149 41.204h2.757v.761H32.98v.242h1.8v.727h-1.8v.242h1.926v.761h-2.757z"/><path data-name="Контур 32" d="M36.729 41.181a3.309 3.309 0 01.807.092 1.2 1.2 0 01.531.254 1.112 1.112 0 01.288.381 1.373 1.373 0 01.092.508h-.854c0-.012-.012-.035-.012-.046a.506.506 0 00-.058-.1.783.783 0 00-.138-.138.763.763 0 00-.254-.1 1.44 1.44 0 00-.4-.046 1.634 1.634 0 00-.358.035.818.818 0 00-.242.092.4.4 0 00-.138.138.616.616 0 00-.069.161.891.891 0 00-.023.173.767.767 0 00.035.242.521.521 0 00.127.2.585.585 0 00.254.138 1.307 1.307 0 00.392.046 2.149 2.149 0 00.415-.035.691.691 0 00.254-.092.411.411 0 00.127-.115.289.289 0 00.058-.092l.012-.035h.854a1.168 1.168 0 01-.046.358 1.007 1.007 0 01-.161.311 1.064 1.064 0 01-.3.254 1.98 1.98 0 01-.484.161 3.983 3.983 0 01-.692.058 3.228 3.228 0 01-.807-.081 1.216 1.216 0 01-.523-.265.912.912 0 01-.277-.415 1.841 1.841 0 01-.081-.6 1.873 1.873 0 01.1-.658 1.039 1.039 0 01.323-.438 1.537 1.537 0 01.519-.242 2.012 2.012 0 01.729-.104z"/><path data-name="Контур 33" d="M38.551 41.204h3.288v.9h-1.235v1.823h-.823v-1.823h-1.23z"/></g><g data-name="Сгруппировать 12"><path data-name="Контур 34" d="M43.15 37.466c4.245 0 6.125 2.734 6.125 5.179 0 2.734-2.2 5.479-6.379 5.479H19.368c-5.479 0-9.886-4-9.886-8.963v-.588C4.257 38.5 0 34.5 0 29.692V5.848a5.866 5.866 0 011.557-4.371A5.272 5.272 0 015.318 0a5.487 5.487 0 015.479 5.848v31.607H43.15zM9.482 5.848c0-3.115-2.122-4.741-4.164-4.741a3.857 3.857 0 00-2.78 1.107 5.021 5.021 0 00-1.3 3.622V29.68c0 4.222 3.68 7.625 8.259 7.775V5.848zM42.9 46.937c3.518 0 5.064-2.226 5.064-4.291 0-1.926-1.477-4.072-4.822-4.072H10.785v.588c0 4.291 3.841 7.775 8.582 7.775H42.9z" fill="#fff"/></g></svg>